<svg width="22" height="82" viewBox="0 0 22 82" fill="none" xmlns="http://www.w3.org/2000/svg">
<g clip-path="url(#clip0_284_29)">
<path d="M12.5 0C12.5 -0.828427 11.8284 -1.5 11 -1.5C10.1716 -1.5 9.5 -0.828427 9.5 0L12.5 0ZM9.93934 81.0607C10.5251 81.6464 11.4749 81.6464 12.0607 81.0607L21.6066 71.5147C22.1924 70.9289 22.1924 69.9792 21.6066 69.3934C21.0208 68.8076 20.0711 68.8076 19.4853 69.3934L11 77.8787L2.51472 69.3934C1.92893 68.8076 0.979185 68.8076 0.393398 69.3934C-0.192388 69.9792 -0.192388 70.9289 0.393398 71.5147L9.93934 81.0607ZM9.5 0L9.5 80H12.5L12.5 0L9.5 0Z" fill="#FCFCFC"/>
</g>
<defs>
<clipPath id="clip0_284_29">
<rect width="22" height="82" fill="white"/>
</clipPath>
</defs>
</svg>
