<svg width="40" height="42" viewBox="0 0 40 42" fill="none" xmlns="http://www.w3.org/2000/svg">
<path fill-rule="evenodd" clip-rule="evenodd" d="M16.0165 0.3125H23.1774C23.6371 0.3125 24.0375 0.3125 24.4146 0.371821C25.1492 0.489494 25.846 0.777449 26.4493 1.21265C27.0526 1.64785 27.5457 2.21821 27.8891 2.87811C28.0671 3.21709 28.1921 3.59631 28.3383 4.03063L28.5734 4.74035C28.7357 5.31695 29.0886 5.82152 29.5746 6.17168C30.0606 6.52183 30.6509 6.69689 31.2492 6.66827H37.605C38.0264 6.66827 38.4305 6.83568 38.7285 7.13366C39.0265 7.43164 39.1939 7.8358 39.1939 8.25721C39.1939 8.67863 39.0265 9.08278 38.7285 9.38076C38.4305 9.67875 38.0264 9.84615 37.605 9.84615H1.58894C1.16753 9.84615 0.763375 9.67875 0.46539 9.38076C0.167406 9.08278 0 8.67863 0 8.25721C0 7.8358 0.167406 7.43164 0.46539 7.13366C0.763375 6.83568 1.16753 6.66827 1.58894 6.66827H8.13538C8.70127 6.6547 9.24791 6.46016 9.69515 6.1132C10.1424 5.76624 10.4667 5.2851 10.6205 4.74035L10.8578 4.03063C11.0018 3.59631 11.1268 3.21709 11.3027 2.87811C11.6463 2.21796 12.1397 1.64743 12.7434 1.21221C13.3471 0.776997 14.0444 0.489184 14.7793 0.371821C15.1564 0.3125 15.5568 0.3125 16.0144 0.3125H16.0165ZM13.2581 6.66827C13.4069 6.37693 13.5309 6.07361 13.6289 5.76151L13.8407 5.12594C14.0335 4.54756 14.078 4.43104 14.1225 4.34629C14.2369 4.12598 14.4013 3.93552 14.6025 3.7902C14.8038 3.64488 15.0363 3.54872 15.2814 3.50945C15.5576 3.48613 15.8349 3.47976 16.1119 3.49038H23.082C23.6922 3.49038 23.8193 3.49462 23.9125 3.51157C24.1574 3.55062 24.3898 3.64645 24.591 3.79139C24.7923 3.93634 24.9568 4.12637 25.0714 4.34629C25.1159 4.43104 25.1604 4.54756 25.3532 5.12805L25.565 5.76363L25.6476 6.00091C25.7303 6.23396 25.8277 6.45429 25.9358 6.66827H13.2581Z" fill="#0B0A0A"/>
<path d="M6.70534 13.4478C6.67724 13.0272 6.48323 12.635 6.16598 12.3575C5.84872 12.08 5.43422 11.9399 5.01364 11.968C4.59307 11.996 4.20089 12.1901 3.92337 12.5073C3.64584 12.8246 3.50572 13.2391 3.53381 13.6596L4.51684 28.3881C4.69692 31.1041 4.8431 33.299 5.18631 35.0235C5.54435 36.8137 6.15027 38.3094 7.40447 39.481C8.65656 40.6547 10.1904 41.1611 12.0018 41.3962C13.7433 41.625 15.9424 41.625 18.6669 41.625H20.5291C23.2515 41.625 25.4527 41.625 27.1942 41.3962C29.0035 41.1611 30.5374 40.6547 31.7916 39.481C33.0436 38.3094 33.6496 36.8116 34.0076 35.0235C34.3508 33.3011 34.4949 31.1041 34.6771 28.3881L35.6601 13.6596C35.6882 13.2391 35.5481 12.8246 35.2705 12.5073C34.993 12.1901 34.6008 11.996 34.1803 11.968C33.7597 11.9399 33.3452 12.08 33.0279 12.3575C32.7107 12.635 32.5167 13.0272 32.4886 13.4478L31.514 28.0661C31.3234 30.9198 31.1878 32.907 30.8912 34.4006C30.6009 35.8519 30.1984 36.6188 29.62 37.1612C29.0395 37.7035 28.2472 38.0552 26.7811 38.2459C25.2705 38.4429 23.2791 38.4471 20.4169 38.4471H18.7771C15.917 38.4471 13.9255 38.4429 12.4128 38.2459C10.9468 38.0552 10.1544 37.7035 9.57391 37.1612C8.99553 36.6188 8.593 35.8519 8.30276 34.4028C8.00615 32.907 7.87056 30.9198 7.67989 28.0639L6.70534 13.4478Z" fill="#0B0A0A"/>
<path d="M14.1414 17.2697C14.5606 17.2277 14.9792 17.3538 15.3054 17.6204C15.6315 17.887 15.8385 18.2722 15.8808 18.6913L16.9401 29.2842C16.9711 29.6975 16.8394 30.1066 16.5731 30.4242C16.3068 30.7417 15.9269 30.9427 15.5145 30.9842C15.1021 31.0256 14.6899 30.9043 14.3657 30.6461C14.0415 30.3879 13.831 30.0132 13.7791 29.602L12.7198 19.0091C12.6778 18.5899 12.804 18.1713 13.0706 17.8451C13.3371 17.5189 13.7223 17.312 14.1414 17.2697ZM25.0521 17.2697C25.4709 17.312 25.8557 17.5187 26.1222 17.8443C26.3887 18.17 26.5151 18.5882 26.4737 19.0069L25.4144 29.5999C25.3619 30.0103 25.1513 30.3841 24.8275 30.6417C24.5037 30.8992 24.0922 31.0203 23.6804 30.9792C23.2687 30.9381 22.8893 30.738 22.6228 30.4215C22.3563 30.1049 22.2238 29.6969 22.2535 29.2842L23.3128 18.6913C23.3551 18.2726 23.5617 17.8877 23.8874 17.6212C24.2131 17.3547 24.6334 17.2283 25.0521 17.2697Z" fill="#0B0A0A"/>
</svg>
