<svg width="28" height="28" viewBox="0 0 28 28" fill="none" xmlns="http://www.w3.org/2000/svg">
<path d="M8.77424 28C8.03105 28 7.39461 27.7256 6.86492 27.1768C6.33524 26.628 6.07084 25.9691 6.07174 25.2C6.07174 24.43 6.33659 23.7706 6.86628 23.2218C7.39597 22.673 8.03195 22.3991 8.77424 22.4C9.51743 22.4 10.1539 22.6744 10.6836 23.2232C11.2132 23.772 11.4776 24.4309 11.4767 25.2C11.4767 25.97 11.2119 26.6294 10.6822 27.1782C10.1525 27.727 9.51653 28.0009 8.77424 28ZM22.2867 28C21.5435 28 20.9071 27.7256 20.3774 27.1768C19.8477 26.628 19.5833 25.9691 19.5842 25.2C19.5842 24.43 19.8491 23.7706 20.3788 23.2218C20.9085 22.673 21.5444 22.3991 22.2867 22.4C23.0299 22.4 23.6663 22.6744 24.196 23.2232C24.7257 23.772 24.9901 24.4309 24.9892 25.2C24.9892 25.97 24.7244 26.6294 24.1947 27.1782C23.665 27.727 23.029 28.0009 22.2867 28ZM7.62568 5.6L10.8687 12.6H20.3274L24.0433 5.6H7.62568ZM6.34199 2.8H26.2729C26.7909 2.8 27.185 3.0394 27.4553 3.5182C27.7255 3.997 27.7368 4.48093 27.489 4.97L22.6921 13.93C22.4444 14.3967 22.112 14.7583 21.6949 15.015C21.2778 15.2717 20.822 15.4 20.3274 15.4H10.2606L8.77424 18.2H24.9892V21H8.77424C7.7608 21 6.9951 20.5389 6.47712 19.6168C5.95914 18.6947 5.93662 17.7791 6.40955 16.87L8.23374 13.44L3.36925 2.8H0.666748V0H5.05831L6.34199 2.8Z" fill="#0B0A0A"/>
</svg>
