<svg width="42" height="42" viewBox="0 0 42 42" fill="none" xmlns="http://www.w3.org/2000/svg">
<path d="M12.4166 0.166748H29.9166C36.5833 0.166748 41.9999 5.58342 41.9999 12.2501V29.7501C41.9999 32.9548 40.7269 36.0282 38.4608 38.2943C36.1947 40.5604 33.1213 41.8334 29.9166 41.8334H12.4166C5.74992 41.8334 0.333252 36.4167 0.333252 29.7501V12.2501C0.333252 9.04538 1.60631 5.97194 3.87238 3.70587C6.13844 1.43981 9.21189 0.166748 12.4166 0.166748ZM11.9999 4.33341C10.0108 4.33341 8.10314 5.12359 6.69662 6.53011C5.29009 7.93664 4.49992 9.84429 4.49992 11.8334V30.1667C4.49992 34.3126 7.85408 37.6667 11.9999 37.6667H30.3333C32.3224 37.6667 34.23 36.8766 35.6366 35.4701C37.0431 34.0635 37.8333 32.1559 37.8333 30.1667V11.8334C37.8333 7.68758 34.4791 4.33341 30.3333 4.33341H11.9999ZM32.1041 7.45841C32.7948 7.45841 33.4571 7.73278 33.9455 8.22116C34.4339 8.70953 34.7083 9.37191 34.7083 10.0626C34.7083 10.7532 34.4339 11.4156 33.9455 11.904C33.4571 12.3924 32.7948 12.6667 32.1041 12.6667C31.4134 12.6667 30.751 12.3924 30.2627 11.904C29.7743 11.4156 29.4999 10.7532 29.4999 10.0626C29.4999 9.37191 29.7743 8.70953 30.2627 8.22116C30.751 7.73278 31.4134 7.45841 32.1041 7.45841ZM21.1666 10.5834C23.9293 10.5834 26.5788 11.6809 28.5323 13.6344C30.4858 15.5879 31.5833 18.2374 31.5833 21.0001C31.5833 23.7628 30.4858 26.4123 28.5323 28.3658C26.5788 30.3193 23.9293 31.4167 21.1666 31.4167C18.4039 31.4167 15.7544 30.3193 13.8009 28.3658C11.8474 26.4123 10.7499 23.7628 10.7499 21.0001C10.7499 18.2374 11.8474 15.5879 13.8009 13.6344C15.7544 11.6809 18.4039 10.5834 21.1666 10.5834ZM21.1666 14.7501C19.509 14.7501 17.9193 15.4086 16.7472 16.5807C15.5751 17.7528 14.9166 19.3425 14.9166 21.0001C14.9166 22.6577 15.5751 24.2474 16.7472 25.4195C17.9193 26.5916 19.509 27.2501 21.1666 27.2501C22.8242 27.2501 24.4139 26.5916 25.586 25.4195C26.7581 24.2474 27.4166 22.6577 27.4166 21.0001C27.4166 19.3425 26.7581 17.7528 25.586 16.5807C24.4139 15.4086 22.8242 14.7501 21.1666 14.7501Z" fill="#FCFCFC"/>
</svg>
