<svg width="27" height="30" viewBox="0 0 27 30" fill="none" xmlns="http://www.w3.org/2000/svg">
<path fill-rule="evenodd" clip-rule="evenodd" d="M19.4445 17.9C21.3056 17.9001 23.0949 18.6214 24.4391 19.9136C25.7833 21.2057 26.5788 22.9688 26.6595 24.8354L26.6667 25.15V26.6C26.667 27.3316 26.3917 28.0363 25.8961 28.5728C25.4006 29.1093 24.7213 29.4379 23.9945 29.4928L23.7779 29.5H3.55564C2.8268 29.5002 2.12482 29.2239 1.5904 28.7264C1.05598 28.2289 0.728633 27.5471 0.67397 26.8175L0.666748 26.6V25.15C0.666856 23.2817 1.38542 21.4856 2.67259 20.1362C3.95976 18.7868 5.71617 17.9883 7.57553 17.9073L7.88897 17.9H19.4445ZM19.4445 20.8H7.88897C6.78367 20.7999 5.72012 21.2239 4.91593 21.9851C4.11174 22.7463 3.6277 23.7872 3.56286 24.8948L3.55564 25.15V26.6H23.7779V25.15C23.7779 24.0404 23.3556 22.9728 22.5973 22.1655C21.8391 21.3582 20.8021 20.8723 19.6987 20.8072L19.4445 20.8ZM13.6667 0.5C15.5822 0.5 17.4192 1.26384 18.7736 2.62348C20.1281 3.98311 20.889 5.82718 20.889 7.75C20.889 9.67282 20.1281 11.5169 18.7736 12.8765C17.4192 14.2362 15.5822 15 13.6667 15C11.7513 15 9.9143 14.2362 8.55987 12.8765C7.20544 11.5169 6.44453 9.67282 6.44453 7.75C6.44453 5.82718 7.20544 3.98311 8.55987 2.62348C9.9143 1.26384 11.7513 0.5 13.6667 0.5ZM13.6667 3.4C13.0977 3.4 12.5342 3.51252 12.0085 3.73112C11.4827 3.94973 11.005 4.27015 10.6026 4.67409C10.2002 5.07802 9.88104 5.55756 9.66327 6.08533C9.4455 6.61309 9.33342 7.17875 9.33342 7.75C9.33342 8.32125 9.4455 8.88691 9.66327 9.41467C9.88104 9.94244 10.2002 10.422 10.6026 10.8259C11.005 11.2298 11.4827 11.5503 12.0085 11.7689C12.5342 11.9875 13.0977 12.1 13.6667 12.1C14.816 12.1 15.9182 11.6417 16.7309 10.8259C17.5435 10.0101 18.0001 8.90369 18.0001 7.75C18.0001 6.59631 17.5435 5.48987 16.7309 4.67409C15.9182 3.8583 14.816 3.4 13.6667 3.4Z" fill="#0B0A0A"/>
</svg>
