<svg width="40" height="36" viewBox="0 0 40 36" fill="none" xmlns="http://www.w3.org/2000/svg">
<g clip-path="url(#clip0_200_44)">
<path d="M3.98653 32.5481C10.6676 32.023 14.5255 27.7959 17.8137 22.8376C18.9141 21.176 19.759 19.3416 20.6695 17.5603C23.1323 12.7483 26.309 8.6607 31.4901 6.6734C36.9135 4.58641 40.0183 6.88609 39.789 12.7882C39.5729 18.338 37.1886 22.9573 33.5337 26.9318C28.7653 32.1161 22.9685 35.3662 15.9338 36.0641C12.2396 36.4297 8.71565 35.8248 5.51924 33.7711C5.04109 33.4587 4.61533 33.0599 3.97998 32.5614L3.98653 32.5481Z" fill="#1A463D"/>
<path d="M35.8209 3.48812C33.4945 4.21324 30.9977 4.69446 28.7827 5.75578C24.1299 7.98389 21.004 11.8666 18.7169 16.4019C17.0065 19.7902 15.3944 23.2708 12.5962 25.8813C10.9251 27.4436 8.95909 28.8675 6.87516 29.764C3.5461 31.1945 0.695436 29.3289 0.171176 25.6967C-0.425171 21.524 0.564371 17.6215 2.70729 14.0815C8.00232 5.33389 15.6303 0.31075 25.9582 0.00751542C29.7067 -0.104549 33.1668 1.03587 35.8209 3.48152V3.48812Z" fill="#1A463D"/>
</g>
<defs>
<clipPath id="clip0_200_44">
<rect width="40" height="36" fill="white"/>
</clipPath>
</defs>
</svg>
