<svg width="61" height="56" viewBox="0 0 61 56" fill="none" xmlns="http://www.w3.org/2000/svg">
<g clip-path="url(#clip0_155_37)">
<path d="M6.00987 50.1253C16.0815 49.3267 21.8974 42.8979 26.8543 35.3572C28.5131 32.8302 29.7869 30.0403 31.1594 27.3313C34.8721 20.013 39.6611 13.7965 47.4715 10.7741C55.6474 7.60015 60.3277 11.0976 59.9821 20.0736C59.6563 28.514 56.0621 35.5392 50.5523 41.5838C43.3639 49.4682 34.6252 54.4111 24.0204 55.4725C18.4513 56.0284 13.139 55.1086 8.32043 51.9852C7.59962 51.5101 6.95779 50.9036 6 50.1455L6.00987 50.1253Z" fill="#1A463D"/>
<path d="M54 5.92984C50.4929 7.03264 46.729 7.76449 43.3899 9.37858C36.3758 12.7672 31.6635 18.6721 28.2157 25.5696C25.6373 30.7227 23.207 36.0161 18.9887 39.9861C16.4695 42.3622 13.5058 44.5276 10.3643 45.8911C5.34575 48.0666 1.04837 45.2294 0.258047 39.7054C-0.640945 33.3593 0.85079 27.4243 4.08123 22.0407C12.0635 8.73695 23.5627 1.0976 39.1321 0.63643C44.7829 0.465998 49.999 2.20039 54 5.91982V5.92984Z" fill="#1A463D"/>
</g>
<defs>
<clipPath id="clip0_155_37">
<rect width="60.3" height="54.75" fill="white" transform="translate(0 0.625)"/>
</clipPath>
</defs>
</svg>
