<svg width="29" height="28" viewBox="0 0 29 28" fill="none" xmlns="http://www.w3.org/2000/svg">
<path d="M26.8333 26.5L20.8014 20.4681M20.8014 20.4681C21.8332 19.4363 22.6516 18.2115 23.21 16.8634C23.7684 15.5153 24.0558 14.0704 24.0558 12.6113C24.0558 11.1521 23.7684 9.70725 23.21 8.35917C22.6516 7.01109 21.8332 5.78619 20.8014 4.75442C19.7696 3.72264 18.5447 2.90419 17.1966 2.3458C15.8485 1.7874 14.4037 1.5 12.9445 1.5C11.4854 1.5 10.0405 1.7874 8.69242 2.3458C7.34434 2.90419 6.11944 3.72264 5.08767 4.75442C3.0039 6.83818 1.83325 9.66438 1.83325 12.6113C1.83325 15.5582 3.0039 18.3844 5.08767 20.4681C7.17144 22.5519 9.99763 23.7225 12.9445 23.7225C15.8914 23.7225 18.7176 22.5519 20.8014 20.4681Z" stroke="#0B0A0A" stroke-width="3" stroke-linecap="round" stroke-linejoin="round"/>
</svg>
